<svg xmlns="http://www.w3.org/2000/svg">
    <g id="discord-svg">
        <path
        d="M19.776 20.136C18.408 20.136 17.328 21.336 17.328 22.8C17.328 24.264 18.432 25.464 19.776 25.464C21.144 25.464 22.224 24.264 22.224 22.8C22.248 21.336 21.144 20.136 19.776 20.136ZM28.536 20.136C27.168 20.136 26.088 21.336 26.088 22.8C26.088 24.264 27.192 25.464 28.536 25.464C29.904 25.464 30.984 24.264 30.984 22.8C30.984 21.336 29.904 20.136 28.536 20.136Z"
        fill="white"/>
        <path
        d="M40.2 0H8.04C5.328 0 3.12 2.208 3.12 4.944V37.392C3.12 40.128 5.328 42.336 8.04 42.336H35.256L33.984 37.896L37.056 40.752L39.96 43.44L45.12 48V4.944C45.12 2.208 42.912 0 40.2 0ZM30.936 31.344C30.936 31.344 30.072 30.312 29.352 29.4C32.496 28.512 33.696 26.544 33.696 26.544C32.712 27.192 31.776 27.648 30.936 27.96C29.736 28.464 28.584 28.8 27.456 28.992C25.152 29.424 23.04 29.304 21.24 28.968C19.872 28.704 18.696 28.32 17.712 27.936C17.16 27.72 16.56 27.456 15.96 27.12C15.888 27.072 15.816 27.048 15.744 27C15.696 26.976 15.672 26.952 15.648 26.928C15.216 26.688 14.976 26.52 14.976 26.52C14.976 26.52 16.128 28.44 19.176 29.352C18.456 30.264 17.568 31.344 17.568 31.344C12.264 31.176 10.248 27.696 10.248 27.696C10.248 19.968 13.704 13.704 13.704 13.704C17.16 11.112 20.448 11.184 20.448 11.184L20.688 11.472C16.368 12.72 14.376 14.616 14.376 14.616C14.376 14.616 14.904 14.328 15.792 13.92C18.36 12.792 20.4 12.48 21.24 12.408C21.384 12.384 21.504 12.36 21.648 12.36C23.112 12.168 24.768 12.12 26.496 12.312C28.776 12.576 31.224 13.248 33.72 14.616C33.72 14.616 31.824 12.816 27.744 11.568L28.08 11.184C28.08 11.184 31.368 11.112 34.824 13.704C34.824 13.704 38.28 19.968 38.28 27.696C38.28 27.696 36.24 31.176 30.936 31.344Z"
        fill="white"/>
    </g>

    <g id="linkedin-svg">
        <path
        d="M44.4469 0H3.54375C1.58437 0 0 1.54688 0 3.45938V44.5312C0 46.4437 1.58437 48 3.54375 48H44.4469C46.4062 48 48 46.4438 48 44.5406V3.45938C48 1.54688 46.4062 0 44.4469 0ZM14.2406 40.9031H7.11563V17.9906H14.2406V40.9031ZM10.6781 14.8688C8.39062 14.8688 6.54375 13.0219 6.54375 10.7437C6.54375 8.46562 8.39062 6.61875 10.6781 6.61875C12.9563 6.61875 14.8031 8.46562 14.8031 10.7437C14.8031 13.0125 12.9563 14.8688 10.6781 14.8688ZM40.9031 40.9031H33.7875V29.7656C33.7875 27.1125 33.7406 23.6906 30.0844 23.6906C26.3812 23.6906 25.8187 26.5875 25.8187 29.5781V40.9031H18.7125V17.9906H25.5375V21.1219H25.6312C26.5781 19.3219 28.9031 17.4188 32.3625 17.4188C39.5719 17.4188 40.9031 22.1625 40.9031 28.3313V40.9031Z"
        fill="white"
        />
    </g>

    <g id="instagram-svg">
        <path
        d="M24 4.32187C30.4125 4.32187 31.1719 4.35 33.6938 4.4625C36.0375 4.56562 37.3031 4.95938 38.1469 5.2875C39.2625 5.71875 40.0688 6.24375 40.9031 7.07812C41.7469 7.92188 42.2625 8.71875 42.6938 9.83438C43.0219 10.6781 43.4156 11.9531 43.5188 14.2875C43.6313 16.8187 43.6594 17.5781 43.6594 23.9813C43.6594 30.3938 43.6313 31.1531 43.5188 33.675C43.4156 36.0188 43.0219 37.2844 42.6938 38.1281C42.2625 39.2438 41.7375 40.05 40.9031 40.8844C40.0594 41.7281 39.2625 42.2438 38.1469 42.675C37.3031 43.0031 36.0281 43.3969 33.6938 43.5C31.1625 43.6125 30.4031 43.6406 24 43.6406C17.5875 43.6406 16.8281 43.6125 14.3063 43.5C11.9625 43.3969 10.6969 43.0031 9.85313 42.675C8.7375 42.2438 7.93125 41.7188 7.09688 40.8844C6.25313 40.0406 5.7375 39.2438 5.30625 38.1281C4.97813 37.2844 4.58438 36.0094 4.48125 33.675C4.36875 31.1438 4.34063 30.3844 4.34063 23.9813C4.34063 17.5688 4.36875 16.8094 4.48125 14.2875C4.58438 11.9437 4.97813 10.6781 5.30625 9.83438C5.7375 8.71875 6.2625 7.9125 7.09688 7.07812C7.94063 6.23438 8.7375 5.71875 9.85313 5.2875C10.6969 4.95938 11.9719 4.56562 14.3063 4.4625C16.8281 4.35 17.5875 4.32187 24 4.32187ZM24 0C17.4844 0 16.6688 0.028125 14.1094 0.140625C11.5594 0.253125 9.80625 0.665625 8.2875 1.25625C6.70312 1.875 5.3625 2.69062 4.03125 4.03125C2.69063 5.3625 1.875 6.70313 1.25625 8.27813C0.665625 9.80625 0.253125 11.55 0.140625 14.1C0.028125 16.6687 0 17.4844 0 24C0 30.5156 0.028125 31.3312 0.140625 33.8906C0.253125 36.4406 0.665625 38.1938 1.25625 39.7125C1.875 41.2969 2.69063 42.6375 4.03125 43.9688C5.3625 45.3 6.70313 46.125 8.27813 46.7344C9.80625 47.325 11.55 47.7375 14.1 47.85C16.6594 47.9625 17.475 47.9906 23.9906 47.9906C30.5063 47.9906 31.3219 47.9625 33.8813 47.85C36.4313 47.7375 38.1844 47.325 39.7031 46.7344C41.2781 46.125 42.6188 45.3 43.95 43.9688C45.2812 42.6375 46.1063 41.2969 46.7156 39.7219C47.3063 38.1938 47.7188 36.45 47.8313 33.9C47.9438 31.3406 47.9719 30.525 47.9719 24.0094C47.9719 17.4938 47.9438 16.6781 47.8313 14.1188C47.7188 11.5688 47.3063 9.81563 46.7156 8.29688C46.125 6.70312 45.3094 5.3625 43.9688 4.03125C42.6375 2.7 41.2969 1.875 39.7219 1.26562C38.1938 0.675 36.45 0.2625 33.9 0.15C31.3313 0.028125 30.5156 0 24 0Z"
        fill="white"
        />
        <path
        d="M24 11.6719C17.1938 11.6719 11.6719 17.1938 11.6719 24C11.6719 30.8062 17.1938 36.3281 24 36.3281C30.8062 36.3281 36.3281 30.8062 36.3281 24C36.3281 17.1938 30.8062 11.6719 24 11.6719ZM24 31.9969C19.5844 31.9969 16.0031 28.4156 16.0031 24C16.0031 19.5844 19.5844 16.0031 24 16.0031C28.4156 16.0031 31.9969 19.5844 31.9969 24C31.9969 28.4156 28.4156 31.9969 24 31.9969Z"
        fill="white"
        />
        <path
        d="M39.6937 11.1843C39.6937 12.778 38.4 14.0624 36.8156 14.0624C35.2219 14.0624 33.9375 12.7687 33.9375 11.1843C33.9375 9.59053 35.2313 8.30615 36.8156 8.30615C38.4 8.30615 39.6937 9.5999 39.6937 11.1843Z"
        fill="white"
        />
    </g>

    <g id="facebook-svg">
        <path
        d="M48 24C48 10.7452 37.2548 0 24 0C10.7452 0 0 10.7452 0 24C0 35.9789 8.77641 45.908 20.25 47.7084V30.9375H14.1562V24H20.25V18.7125C20.25 12.6975 23.8331 9.375 29.3152 9.375C31.9402 9.375 34.6875 9.84375 34.6875 9.84375V15.75H31.6613C28.68 15.75 27.75 17.6002 27.75 19.5V24H34.4062L33.3422 30.9375H27.75V47.7084C39.2236 45.908 48 35.9789 48 24Z"
        fill="white"
        />
    </g>
    <g id="github-svg">
        <path fill-rule="evenodd" d="M8 0C3.58 0 0 3.58 0 8c0 3.54 2.29 6.53 5.47 7.59.4.07.55-.17.55-.38 0-.19-.01-.82-.01-1.49-2.01.37-2.53-.49-2.69-.94-.09-.23-.48-.94-.82-1.13-.28-.15-.68-.52-.01-.53.63-.01 1.08.58 1.23.82.72 1.21 1.87.87 2.33.66.07-.52.28-.87.51-1.07-1.78-.2-3.64-.89-3.64-3.95 0-.87.31-1.59.82-2.15-.08-.2-.36-1.02.08-2.12 0 0 .67-.21 2.2.82.64-.18 1.32-.27 2-.27.68 0 1.36.09 2 .27 1.53-1.04 2.2-.82 2.2-.82.44 1.1.16 1.92.08 2.12.51.56.82 1.27.82 2.15 0 3.07-1.87 3.75-3.65 3.95.29.25.54.73.54 1.48 0 1.07-.01 1.93-.01 2.2 0 .21.15.46.55.38A8.013 8.013 0 0016 8c0-4.42-3.58-8-8-8z" fill="white"/>
    </g>

</svg>